<svg width="107.2949462890625px" height="125.61248779296875px" xmlns="http://www.w3.org/2000/svg" viewBox="196.35252685546874 12.193756103515625 107.2949462890625 125.61248779296875" style="background: rgba(0, 0, 0, 0);" preserveAspectRatio="xMidYMid"><defs><filter id="editing-extrusion" x="-100%" y="-100%" width="300%" height="300%"><feFlood result="color1" flood-color="#444"></feFlood><feConvolveMatrix order="8,8" divisor="1" kernelMatrix="1 0 0 0 0 0 0 0 0 1 0 0 0 0 0 0 0 0 1 0 0 0 0 0 0 0 0 1 0 0 0 0 0 0 0 0 1 0 0 0 0 0 0 0 0 1 0 0 0 0 0 0 0 0 1 0 0 0 0 0 0 0 0 1" in="SourceAlpha" result="extrude"></feConvolveMatrix><feComposite in="color1" in2="extrude" result="comp-extrude" operator="in"></feComposite><feOffset dx="4" dy="4" in="comp-extrude" result="offset-extrude"></feOffset><feMerge><feMergeNode in="offset-extrude"></feMergeNode><feMergeNode in="SourceGraphic"></feMergeNode></feMerge></filter></defs><g filter="url(#editing-extrusion)"><g transform="translate(220.52312541007996, 98.90500068664551)"><path d="M13.18-0.77L13.18 0L5.06 0L5.06-0.77L5.06-0.77Q6.14-3.97 6.14-10.88L6.14-10.88L6.14-37.57L6.14-37.57Q6.14-42.69 3.20-45.50L3.20-45.50L3.20-46.27L11.97-47.81L12.35-47.17L12.35-47.17Q12.16-45.31 12.16-41.86L12.16-41.86L12.16-19.33L23.04-28.42L23.04-28.42Q24.83-29.89 24.83-30.72L24.83-30.72L32.19-30.72L32.19-29.95L32.19-29.95Q30.98-29.82 26.18-25.98L26.18-25.98L17.09-18.18L25.09-9.60L25.09-9.60Q29.50-4.74 31.42-3.07L31.42-3.07L31.42-3.07Q33.34-1.41 35.14-0.77L35.14-0.77L35.14 0L25.60 0L25.60 0Q25.60-0.13 12.16-16.13L12.16-16.13L12.16-10.88L12.16-10.88Q12.16-3.78 13.18-0.77L13.18-0.77ZM36.74-27.07L38.21-30.98L41.86-30.78L41.86-34.62L41.86-34.62Q41.86-40.06 44.38-43.71L44.38-43.71L44.38-43.71Q46.91-47.36 52.22-47.36L52.22-47.36L52.22-47.36Q57.54-47.36 62.91-44.93L62.91-44.93L62.91-44.93Q61.25-40.90 60.16-39.30L60.16-39.30L60.16-39.30Q55.62-43.39 51.84-43.39L51.84-43.39L51.84-43.39Q50.62-43.39 49.22-42.82L49.22-42.82L49.22-42.82Q47.87-41.09 47.87-34.43L47.87-34.43L47.87-30.72L47.87-30.72Q52.54-30.78 57.15-31.23L57.15-31.23L55.42-26.56L55.42-26.56Q51.65-27.14 47.87-27.26L47.87-27.26L47.87-12.35L47.87-12.35Q47.87-9.34 48.45-5.70L48.45-5.70L48.45-5.70Q49.02-2.05 49.73-0.45L49.73-0.45L49.73 0L40.77 0L40.77-0.45L40.77-0.45Q41.86-3.65 41.86-10.88L41.86-10.88L41.86-27.26L36.74-27.07Z" fill="#ccc"></path></g></g><style>text {
  font-size: 64px;
  font-family: Arial Black;
  dominant-baseline: central;
  text-anchor: middle;
}</style></svg>